<svg width="30" height="39" viewBox="0 0 30 39" fill="none" xmlns="http://www.w3.org/2000/svg">
<path fill-rule="evenodd" clip-rule="evenodd" d="M22.925 11.9003C23.175 12.1336 23.4833 12.2503 23.85 12.2503C24.2333 12.2503 24.5417 12.1336 24.775 11.9003C25.0083 11.6503 25.125 11.342 25.125 10.9753V7.62529H28.475C28.825 7.62529 29.125 7.50029 29.375 7.25029C29.6417 7.00029 29.775 6.69196 29.775 6.32529C29.775 5.97529 29.6417 5.67529 29.375 5.42529C29.125 5.17529 28.825 5.05029 28.475 5.05029H25.125V1.70029C25.125 1.33363 25.0083 1.03363 24.775 0.800292C24.5417 0.550293 24.2333 0.425293 23.85 0.425293C23.5167 0.425293 23.2167 0.550293 22.95 0.800292C22.7 1.05029 22.575 1.35029 22.575 1.70029V5.05029H19.225C18.8583 5.05029 18.55 5.17529 18.3 5.42529C18.0667 5.65863 17.95 5.95863 17.95 6.32529C17.95 6.48256 17.9715 6.6291 18.0144 6.7649C16.6812 5.74635 15.0151 5.14133 13.2078 5.14133C8.83112 5.14133 5.28312 8.68934 5.28312 13.066C5.28312 17.4427 8.83112 20.9907 13.2078 20.9907C17.5845 20.9907 21.1325 17.4427 21.1325 13.066C21.1325 10.9462 20.3002 9.02075 18.9445 7.5987C19.0339 7.61643 19.1274 7.62529 19.225 7.62529H22.575V10.9753C22.575 11.342 22.6917 11.6503 22.925 11.9003ZM26.4157 38.161C26.4157 34.3077 25.0241 30.6123 22.5472 27.8877C20.0702 25.163 16.7108 23.6324 13.2078 23.6324C9.70489 23.6324 6.34543 25.163 3.86848 27.8877C1.39154 30.6123 0 34.3077 0 38.161L13.2078 38.161H26.4157Z" fill="white"/>
</svg>
