<svg width="44" height="44" viewBox="0 0 44 44" fill="none" xmlns="http://www.w3.org/2000/svg">
<path d="M11.2559 32.8428C10.5818 32.1687 10.2294 31.3874 10.1988 30.4988C10.2294 29.6102 10.5818 28.8288 11.2559 28.1547L17.4148 21.9958L11.2559 15.8369C10.5818 15.1628 10.2448 14.3661 10.2448 13.4469C10.2754 12.5583 10.6278 11.777 11.3019 11.1028C11.976 10.4287 12.742 10.0917 13.6 10.0917C14.5192 10.0917 15.3159 10.4287 15.99 11.1028L22.1489 17.2617L28.3078 11.1028C28.9513 10.4594 29.7326 10.1376 30.6519 10.1376C31.6017 10.1683 32.3831 10.49 32.9959 11.1028C33.7007 11.8076 34.0377 12.6043 34.0071 13.4929C34.0071 14.3508 33.67 15.1169 32.9959 15.791L26.837 21.9499L32.9959 28.1088C33.6394 28.7522 33.9611 29.5336 33.9611 30.4528C33.9918 31.4027 33.6853 32.1994 33.0419 32.8428C32.3678 33.517 31.5558 33.8387 30.6059 33.808C29.6867 33.808 28.9053 33.4863 28.2618 32.8428L22.1029 26.6839L15.944 32.8428C15.2699 33.517 14.4886 33.8693 13.6 33.9C12.742 33.9 11.9607 33.5476 11.2559 32.8428Z" fill="white"/>
</svg>
