<svg width="31" height="19" viewBox="0 0 31 19" fill="none" xmlns="http://www.w3.org/2000/svg">
<path d="M1 19C1.00364 17.1647 1.69716 15.4057 2.92877 14.108C4.16037 12.8103 5.82974 12.0795 7.57149 12.0757C9.31563 12.0757 10.9885 12.8047 12.2231 14.1029C13.4577 15.401 14.1531 17.1622 14.1568 19" stroke="black" stroke-width="2" stroke-miterlimit="10"/>
<path d="M7.57173 9.30339C9.74781 9.30339 11.5119 7.44461 11.5119 5.15169C11.5119 2.85878 9.74781 1 7.57173 1C5.39565 1 3.63159 2.85878 3.63159 5.15169C3.63159 7.44461 5.39565 9.30339 7.57173 9.30339Z" stroke="black" stroke-width="2" stroke-miterlimit="10"/>
<path d="M16.8433 19C16.8469 17.1622 17.5423 15.401 18.7769 14.1029C20.0115 12.8047 21.6844 12.0757 23.4285 12.0757C25.1703 12.0795 26.8396 12.8103 28.0713 14.108C29.3029 15.4057 29.9964 17.1647 30 19" stroke="black" stroke-width="2" stroke-miterlimit="10"/>
<path d="M23.3596 9.30339C25.5357 9.30339 27.2997 7.44461 27.2997 5.15169C27.2997 2.85878 25.5357 1 23.3596 1C21.1835 1 19.4194 2.85878 19.4194 5.15169C19.4194 7.44461 21.1835 9.30339 23.3596 9.30339Z" stroke="black" stroke-width="2" stroke-miterlimit="10"/>
</svg>
