<svg width="80" height="80" viewBox="0 0 80 80" fill="none" xmlns="http://www.w3.org/2000/svg">
<rect width="80" height="80" rx="15" fill="url(#paint0_linear_25_101)"/>
<path d="M23.7322 28.9074C21.5171 23.9858 23.8679 18.5999 28.9827 16.8776V16.8776L44.1746 50.6314C45.2821 53.0922 44.1068 55.7852 41.5493 56.6463V56.6463C38.9919 57.5075 36.0208 56.2107 34.9133 53.7499L23.7322 28.9074Z" fill="url(#paint1_linear_25_101)"/>
<path d="M18.4206 25.9176C18.7753 20.4403 23.503 16.2875 28.9803 16.6421V16.6421L26.2386 58.989C26.0613 61.7276 23.6974 63.804 20.9587 63.6267V63.6267C18.2201 63.4494 16.1437 61.0855 16.321 58.3469L18.4206 25.9176Z" fill="url(#paint2_linear_25_101)"/>
<path d="M56.2859 28.9523C58.5009 24.0307 56.1502 18.6448 51.0353 16.9225V16.9225L35.8435 50.6764C34.7359 53.1371 35.9113 55.8301 38.4687 56.6912V56.6912C41.0262 57.5524 43.9972 56.2556 45.1048 53.7948L56.2859 28.9523Z" fill="url(#paint3_linear_25_101)"/>
<path d="M61.5974 25.9698C61.2428 20.4925 56.5151 16.3397 51.0378 16.6944V16.6944L53.7795 59.0412C53.9568 61.7799 56.3207 63.8563 59.0593 63.679V63.679C61.798 63.5016 63.8744 61.1378 63.6971 58.3991L61.5974 25.9698Z" fill="url(#paint4_linear_25_101)"/>
<defs>
<linearGradient id="paint0_linear_25_101" x1="40" y1="0" x2="40" y2="80" gradientUnits="userSpaceOnUse">
<stop stop-color="#E7E7FB"/>
<stop offset="1" stop-color="#CCCDE1"/>
</linearGradient>
<linearGradient id="paint1_linear_25_101" x1="22.711" y1="16.9262" x2="37.3639" y2="57.3639" gradientUnits="userSpaceOnUse">
<stop stop-color="#3D4E81"/>
<stop offset="0.48" stop-color="#5753C9"/>
<stop offset="1" stop-color="#6E7FF3"/>
</linearGradient>
<linearGradient id="paint2_linear_25_101" x1="17.5313" y1="39.6528" x2="27.4489" y2="40.2949" gradientUnits="userSpaceOnUse">
<stop stop-color="#4481EB"/>
<stop offset="1" stop-color="#04BEFE"/>
</linearGradient>
<linearGradient id="paint3_linear_25_101" x1="56.7337" y1="17.5821" x2="42.6328" y2="58.8611" gradientUnits="userSpaceOnUse">
<stop stop-color="#3D4E81"/>
<stop offset="0.48" stop-color="#5753C9"/>
<stop offset="1" stop-color="#6E7FF3"/>
</linearGradient>
<linearGradient id="paint4_linear_25_101" x1="62.4867" y1="39.7051" x2="52.5692" y2="40.3472" gradientUnits="userSpaceOnUse">
<stop stop-color="#4481EB"/>
<stop offset="1" stop-color="#04BEFE"/>
</linearGradient>
</defs>
</svg>
