<svg width="31" height="31" viewBox="0 0 31 31" fill="none" xmlns="http://www.w3.org/2000/svg">
<path d="M30.0001 10.2251V27.3628C29.9965 28.0612 29.7174 28.73 29.2236 29.2238C28.7297 29.7177 28.0609 29.9968 27.3625 30.0004C26.6652 29.9932 25.9984 29.713 25.5053 29.2199C25.0122 28.7268 24.732 28.0601 24.7249 27.3628V10.2251H30.0001Z" stroke="black" stroke-width="2" stroke-miterlimit="10"/>
<path d="M27.3625 30.0001H3.63766C3.29077 30.0019 2.94696 29.9349 2.62613 29.803C2.30529 29.6711 2.01379 29.4769 1.7685 29.2316C1.52321 28.9863 1.32899 28.6948 1.19709 28.374C1.06518 28.0532 0.998206 27.7094 1.00004 27.3625V1H24.7249V27.3625C24.7321 28.0598 25.0123 28.7265 25.5054 29.2196C25.9985 29.7127 26.6652 29.9929 27.3625 30.0001Z" stroke="black" stroke-width="2" stroke-miterlimit="10"/>
<path d="M19.4635 6.2749H6.27539V14.1878H19.4635V6.2749Z" stroke="black" stroke-width="2" stroke-miterlimit="10"/>
<path d="M4.94971 19.4492H20.7755" stroke="black" stroke-width="2" stroke-miterlimit="10"/>
<path d="M4.94971 24.7251H20.7755" stroke="black" stroke-width="2" stroke-miterlimit="10"/>
</svg>
