<svg width="32" height="32" viewBox="0 0 32 32" fill="none" xmlns="http://www.w3.org/2000/svg">
<path d="M31 6.11344V19.7731C31 21.1293 30.4738 22.4299 29.5372 23.3889C28.6006 24.3478 27.3304 24.8866 26.0058 24.8866H22.6705V30L12.6647 24.8866H5.99418C5.33833 24.8866 4.68891 24.7543 4.08299 24.4973C3.47707 24.2403 2.92651 23.8637 2.46276 23.3889C1.52617 22.4299 1 21.1293 1 19.7731V6.11344C1 4.75727 1.52617 3.45665 2.46276 2.49769C3.39935 1.53874 4.66964 1 5.99418 1H26.0058C27.3304 1 28.6006 1.53874 29.5372 2.49769C30.4738 3.45665 31 4.75727 31 6.11344Z" stroke="black" stroke-width="2" stroke-miterlimit="10"/>
</svg>
