<svg width="35" height="35" viewBox="0 0 35 35" fill="none" xmlns="http://www.w3.org/2000/svg">
<path d="M17.5822 21.8675C20.1858 21.8675 22.2965 19.7569 22.2965 17.1533C22.2965 14.5496 20.1858 12.439 17.5822 12.439C14.9786 12.439 12.8679 14.5496 12.8679 17.1533C12.8679 19.7569 14.9786 21.8675 17.5822 21.8675Z" stroke="black" stroke-width="2" stroke-miterlimit="10"/>
<path d="M34 20.5014V14.4986H30.6529C30.317 13.0176 29.7326 11.6042 28.9243 10.3186L31.2814 7.96143L27.0386 3.71857L24.6814 6.07571C23.3958 5.26744 21.9824 4.68297 20.5014 4.34714V1H14.4986V4.34714C13.0176 4.68297 11.6042 5.26744 10.3186 6.07571L7.96143 3.71857L3.71857 7.96143L6.07571 10.3186C5.26744 11.6042 4.68297 13.0176 4.34714 14.4986H1V20.5014H4.34714C4.68297 21.9824 5.26744 23.3958 6.07571 24.6814L3.71857 27.0386L7.96143 31.2814L10.3186 28.9243C11.6042 29.7326 13.0176 30.317 14.4986 30.6529V34H20.5014V30.6529C21.9824 30.317 23.3958 29.7326 24.6814 28.9243L27.0386 31.2814L31.2814 27.0386L28.9243 24.6814C29.7326 23.3958 30.317 21.9824 30.6529 20.5014H34Z" stroke="black" stroke-width="2" stroke-miterlimit="10"/>
</svg>
